<svg version="1.1" xmlns="http://www.w3.org/2000/svg" viewBox="0 0 880 880" width="880" height="880"><defs><clipPath id="source-alpha-boundary-clip" clipPathUnits="userSpaceOnUse"><path d="M421 19H460V20H421ZM405 20H476V21H405ZM395 21H486V22H395ZM387 22H494V23H387ZM379 23H502V24H379ZM373 24H508V25H373ZM367 25H514V26H367ZM362 26H519V27H362ZM356 27H525V28H356ZM352 28H529V29H352ZM347 29H534V30H347ZM343 30H538V31H343ZM339 31H542V32H339ZM335 32H546V33H335ZM331 33H550V34H331ZM327 34H554V35H327ZM324 35H557V36H324ZM320 36H561V37H320ZM317 37H564V38H317ZM314 38H567V39H314ZM311 39H570V40H311ZM308 40H573V41H308ZM305 41H576V42H305ZM302 42H579V43H302ZM299 43H582V44H299ZM296 44H585V45H296ZM293 45H588V46H293ZM291 46H590V47H291ZM288 47H593V48H288ZM286 48H595V49H286ZM283 49H598V50H283ZM281 50H600V51H281ZM278 51H603V52H278ZM276 52H605V53H276ZM274 53H607V54H274ZM271 54H610V55H271ZM269 55H612V56H269ZM267 56H614V57H267ZM265 57H616V58H265ZM262 58H619V59H262ZM260 59H621V60H260ZM258 60H623V61H258ZM256 61H625V62H256ZM254 62H627V63H254ZM252 63H629V64H252ZM250 64H631V65H250ZM248 65H633V66H248ZM246 66H635V67H246ZM244 67H637V68H244ZM242 68H639V69H242ZM241 69H640V70H241ZM239 70H642V71H239ZM237 71H644V72H237ZM235 72H646V73H235ZM233 73H648V74H233ZM232 74H649V75H232ZM230 75H651V76H230ZM228 76H653V77H228ZM226 77H655V78H226ZM225 78H656V79H225ZM223 79H658V80H223ZM221 80H660V81H221ZM220 81H661V82H220ZM218 82H663V83H218ZM216 83H665V84H216ZM215 84H666V85H215ZM213 85H668V86H213ZM212 86H669V87H212ZM210 87H671V88H210ZM209 88H672V89H209ZM207 89H674V90H207ZM206 90H675V91H206ZM204 91H677V92H204ZM203 92H678V93H203ZM201 93H680V94H201ZM200 94H681V95H200ZM198 95H683V96H198ZM197 96H684V97H197ZM196 97H685V98H196ZM194 98H687V99H194ZM193 99H688V100H193ZM191 100H690V101H191ZM190 101H691V102H190ZM189 102H692V103H189ZM187 103H694V104H187ZM186 104H695V105H186ZM185 105H696V106H185ZM183 106H698V107H183ZM182 107H699V108H182ZM181 108H700V109H181ZM180 109H701V110H180ZM178 110H703V111H178ZM177 111H704V112H177ZM176 112H705V113H176ZM175 113H706V114H175ZM173 114H708V115H173ZM172 115H709V116H172ZM171 116H710V117H171ZM170 117H711V118H170ZM169 118H712V119H169ZM167 119H714V120H167ZM166 120H715V121H166ZM165 121H716V122H165ZM164 122H717V123H164ZM163 123H718V124H163ZM162 124H719V125H162ZM160 125H721V126H160ZM159 126H722V127H159ZM158 127H723V128H158ZM157 128H724V129H157ZM156 129H725V130H156ZM155 130H726V131H155ZM154 131H727V132H154ZM153 132H728V133H153ZM152 133H729V134H152ZM151 134H730V135H151ZM150 135H731V136H150ZM149 136H732V137H149ZM148 137H733V138H148ZM147 138H734V139H147ZM145 139H736V140H145ZM144 140H737V141H144ZM143 141H738V142H143ZM142 142H739V143H142ZM141 143H740V144H141ZM140 144H741V145H140ZM139 145H742V147H139ZM138 147H743V148H138ZM137 148H744V149H137ZM136 149H745V150H136ZM135 150H746V151H135ZM134 151H747V152H134ZM133 152H748V153H133ZM132 153H749V154H132ZM131 154H750V155H131ZM130 155H751V156H130ZM129 156H752V157H129ZM128 157H753V158H128ZM127 158H754V159H127ZM126 159H755V160H126ZM125 160H756V162H125ZM124 162H757V163H124ZM123 163H758V164H123ZM122 164H759V165H122ZM121 165H760V166H121ZM120 166H761V167H120ZM119 167H762V169H119ZM118 169H763V170H118ZM117 170H764V171H117ZM116 171H765V172H116ZM115 172H766V173H115ZM114 173H767V175H114ZM113 175H768V176H113ZM112 176H769V177H112ZM111 177H770V178H111ZM110 178H771V180H110ZM109 180H772V181H109ZM108 181H773V182H108ZM107 182H774V183H107ZM106 183H775V185H106ZM105 185H776V186H105ZM104 186H777V187H104ZM103 187H778V189H103ZM102 189H779V190H102ZM101 190H780V191H101ZM100 191H781V193H100ZM99 193H782V194H99ZM98 194H783V196H98ZM97 196H784V197H97ZM96 197H785V198H96ZM95 198H786V200H95ZM94 200H787V201H94ZM93 201H788V203H93ZM92 203H789V204H92ZM91 204H790V206H91ZM90 206H791V207H90ZM89 207H792V209H89ZM88 209H793V210H88ZM87 210H794V212H87ZM86 212H795V213H86ZM85 213H796V215H85ZM84 215H797V216H84ZM83 216H798V218H83ZM82 218H799V220H82ZM81 220H800V221H81ZM80 221H801V223H80ZM79 223H802V225H79ZM78 225H803V226H78ZM77 226H804V228H77ZM76 228H805V230H76ZM75 230H806V232H75ZM74 232H807V233H74ZM73 233H808V235H73ZM72 235H809V237H72ZM71 237H810V239H71ZM70 239H811V241H70ZM69 241H812V242H69ZM68 242H813V244H68ZM67 244H814V246H67ZM66 246H815V248H66ZM65 248H816V250H65ZM64 250H817V252H64ZM63 252H818V254H63ZM62 254H819V256H62ZM61 256H820V258H61ZM60 258H821V260H60ZM59 260H822V262H59ZM58 262H823V265H58ZM57 265H824V267H57ZM56 267H825V269H56ZM55 269H826V271H55ZM54 271H827V274H54ZM53 274H828V276H53ZM52 276H829V278H52ZM51 278H830V281H51ZM50 281H831V283H50ZM49 283H832V286H49ZM48 286H833V288H48ZM47 288H834V291H47ZM46 291H835V293H46ZM45 293H836V296H45ZM44 296H837V299H44ZM43 299H838V302H43ZM42 302H839V305H42ZM41 305H840V308H41ZM40 308H841V311H40ZM39 311H842V314H39ZM38 314H843V317H38ZM37 317H844V320H37ZM36 320H845V324H36ZM35 324H846V327H35ZM34 327H847V331H34ZM33 331H848V335H33ZM32 335H849V339H32ZM31 339H850V343H31ZM30 343H851V347H30ZM29 347H852V352H29ZM28 352H853V356H28ZM27 356H854V362H27ZM26 362H855V367H26ZM25 367H856V373H25ZM24 373H857V379H24ZM23 379H858V387H23ZM22 387H859V395H22ZM21 395H860V405H21ZM20 405H861V421H20ZM19 421H862V460H19ZM20 460H861V476H20ZM21 476H860V486H21ZM22 486H859V494H22ZM23 494H858V502H23ZM24 502H857V508H24ZM25 508H856V514H25ZM26 514H855V519H26ZM27 519H854V525H27ZM28 525H853V529H28ZM29 529H852V534H29ZM30 534H851V538H30ZM31 538H850V542H31ZM32 542H849V546H32ZM33 546H848V550H33ZM34 550H847V554H34ZM35 554H846V557H35ZM36 557H845V561H36ZM37 561H844V564H37ZM38 564H843V567H38ZM39 567H842V570H39ZM40 570H841V573H40ZM41 573H840V576H41ZM42 576H839V579H42ZM43 579H838V582H43ZM44 582H837V585H44ZM45 585H836V588H45ZM46 588H835V590H46ZM47 590H834V593H47ZM48 593H833V595H48ZM49 595H832V598H49ZM50 598H831V600H50ZM51 600H830V603H51ZM52 603H829V605H52ZM53 605H828V607H53ZM54 607H827V610H54ZM55 610H826V612H55ZM56 612H825V614H56ZM57 614H824V616H57ZM58 616H823V619H58ZM59 619H822V621H59ZM60 621H821V623H60ZM61 623H820V625H61ZM62 625H819V627H62ZM63 627H818V629H63ZM64 629H817V631H64ZM65 631H816V633H65ZM66 633H815V635H66ZM67 635H814V637H67ZM68 637H813V639H68ZM69 639H812V640H69ZM70 640H811V642H70ZM71 642H810V644H71ZM72 644H809V646H72ZM73 646H808V648H73ZM74 648H807V649H74ZM75 649H806V651H75ZM76 651H805V653H76ZM77 653H804V655H77ZM78 655H803V656H78ZM79 656H802V658H79ZM80 658H801V660H80ZM81 660H800V661H81ZM82 661H799V663H82ZM83 663H798V665H83ZM84 665H797V666H84ZM85 666H796V668H85ZM86 668H795V669H86ZM87 669H794V671H87ZM88 671H793V672H88ZM89 672H792V674H89ZM90 674H791V675H90ZM91 675H790V677H91ZM92 677H789V678H92ZM93 678H788V680H93ZM94 680H787V681H94ZM95 681H786V683H95ZM96 683H785V684H96ZM97 684H784V685H97ZM98 685H783V687H98ZM99 687H782V688H99ZM100 688H781V690H100ZM101 690H780V691H101ZM102 691H779V692H102ZM103 692H778V694H103ZM104 694H777V695H104ZM105 695H776V696H105ZM106 696H775V698H106ZM107 698H774V699H107ZM108 699H773V700H108ZM109 700H772V701H109ZM110 701H771V703H110ZM111 703H770V704H111ZM112 704H769V705H112ZM113 705H768V706H113ZM114 706H767V708H114ZM115 708H766V709H115ZM116 709H765V710H116ZM117 710H764V711H117ZM118 711H763V712H118ZM119 712H762V714H119ZM120 714H761V715H120ZM121 715H760V716H121ZM122 716H759V717H122ZM123 717H758V718H123ZM124 718H757V719H124ZM125 719H756V721H125ZM126 721H755V722H126ZM127 722H754V723H127ZM128 723H753V724H128ZM129 724H752V725H129ZM130 725H751V726H130ZM131 726H750V727H131ZM132 727H749V728H132ZM133 728H748V729H133ZM134 729H747V730H134ZM135 730H746V731H135ZM136 731H745V732H136ZM137 732H744V733H137ZM138 733H743V734H138ZM139 734H742V736H139ZM140 736H741V737H140ZM141 737H740V738H141ZM142 738H739V739H142ZM143 739H738V740H143ZM144 740H737V741H144ZM145 741H736V742H145ZM147 742H734V743H147ZM148 743H733V744H148ZM149 744H732V745H149ZM150 745H731V746H150ZM151 746H730V747H151ZM152 747H729V748H152ZM153 748H728V749H153ZM154 749H727V750H154ZM155 750H726V751H155ZM156 751H725V752H156ZM157 752H724V753H157ZM158 753H723V754H158ZM159 754H722V755H159ZM160 755H721V756H160ZM162 756H719V757H162ZM163 757H718V758H163ZM164 758H717V759H164ZM165 759H716V760H165ZM166 760H715V761H166ZM167 761H714V762H167ZM169 762H712V763H169ZM170 763H711V764H170ZM171 764H710V765H171ZM172 765H709V766H172ZM173 766H708V767H173ZM175 767H706V768H175ZM176 768H705V769H176ZM177 769H704V770H177ZM178 770H703V771H178ZM180 771H701V772H180ZM181 772H700V773H181ZM182 773H699V774H182ZM183 774H698V775H183ZM185 775H696V776H185ZM186 776H695V777H186ZM187 777H694V778H187ZM189 778H692V779H189ZM190 779H691V780H190ZM191 780H690V781H191ZM193 781H688V782H193ZM194 782H687V783H194ZM196 783H685V784H196ZM197 784H684V785H197ZM198 785H683V786H198ZM200 786H681V787H200ZM201 787H680V788H201ZM203 788H678V789H203ZM204 789H677V790H204ZM206 790H675V791H206ZM207 791H674V792H207ZM209 792H672V793H209ZM210 793H671V794H210ZM212 794H669V795H212ZM213 795H668V796H213ZM215 796H666V797H215ZM216 797H665V798H216ZM218 798H663V799H218ZM220 799H661V800H220ZM221 800H660V801H221ZM223 801H658V802H223ZM225 802H656V803H225ZM226 803H655V804H226ZM228 804H653V805H228ZM230 805H651V806H230ZM232 806H649V807H232ZM233 807H648V808H233ZM235 808H646V809H235ZM237 809H644V810H237ZM239 810H642V811H239ZM241 811H640V812H241ZM242 812H639V813H242ZM244 813H637V814H244ZM246 814H635V815H246ZM248 815H633V816H248ZM250 816H631V817H250ZM252 817H629V818H252ZM254 818H627V819H254ZM256 819H625V820H256ZM258 820H623V821H258ZM260 821H621V822H260ZM262 822H619V823H262ZM265 823H616V824H265ZM267 824H614V825H267ZM269 825H612V826H269ZM271 826H610V827H271ZM274 827H607V828H274ZM276 828H605V829H276ZM278 829H603V830H278ZM281 830H600V831H281ZM283 831H598V832H283ZM286 832H595V833H286ZM288 833H593V834H288ZM291 834H590V835H291ZM293 835H588V836H293ZM296 836H585V837H296ZM299 837H582V838H299ZM302 838H579V839H302ZM305 839H576V840H305ZM308 840H573V841H308ZM311 841H570V842H311ZM314 842H567V843H314ZM317 843H564V844H317ZM320 844H561V845H320ZM324 845H557V846H324ZM327 846H554V847H327ZM331 847H550V848H331ZM335 848H546V849H335ZM339 849H542V850H339ZM343 850H538V851H343ZM347 851H534V852H347ZM352 852H529V853H352ZM356 853H525V854H356ZM362 854H519V855H362ZM367 855H514V856H367ZM373 856H508V857H373ZM379 857H502V858H379ZM387 858H494V859H387ZM395 859H486V860H395ZM405 860H476V861H405ZM421 861H460V862H421Z" /></clipPath></defs><g data-alpha-boundary-clip="true" clip-path="url(#source-alpha-boundary-clip)">
<path data-fill-layer-id="vtracer-fill-1-48da6d" d="M0 0c290 0 581 0 880 0 0 290 0 581 0 880-290 0-581 0-880 0 0-290 0-581 0-880Z" fill="#48DA6D" transform="translate(0,0)" />
<path d="M0 0c290 0 581 0 880 0 0 290 0 581 0 880-290 0-581 0-880 0 0-290 0-581 0-880ZM396 22c-1 0-1 0-3 0-86 10-170 47-233 105-2 2-5 4-7 6-4 4-9 9-13 13-1 1-2 1-2 2-5 5-10 10-14 15-1 1-2 2-3 3-23 27-43 58-59 91-1 1-1 3-2 4-21 42-33 89-38 135 0 1 0 2 0 3-3 29-3 58 0 86 0 1 0 1 0 3 10 86 47 170 105 233 2 2 4 5 6 7 4 4 9 9 13 13 1 1 1 2 2 2 5 5 10 10 15 14 1 1 2 2 3 3 27 23 58 43 91 59 1 1 3 1 4 2 42 21 89 33 135 38 1 0 2 0 3 0 29 3 58 3 86 0 1 0 1 0 3 0 86-10 170-47 233-105 2-2 5-4 7-6 4-4 9-9 13-13 1-1 2-1 2-2 5-5 10-10 14-15 1-1 2-2 3-3 23-27 43-58 59-91 1-1 1-3 2-4 21-42 33-89 38-135 0-1 0-2 0-3 3-29 3-58 0-86 0-1 0-1 0-3-10-86-47-170-105-233-2-2-4-5-6-7-4-4-9-9-13-13 0 0 0 0-2-2-5-5-10-10-15-14 0 0 0 0-3-3-27-23-58-43-91-59-1-1-3-1-4-2-42-21-89-33-135-38-1 0-2 0-3 0-29-3-58-3-86 0Z" fill="none" transform="translate(0,0)"/>
<path data-fill-layer-id="vtracer-fill-2-fefe24" d="M0 0c31 27 51 64 53 105 2 33-8 64-30 90-17 18-40 30-64 32-19 0-37-4-52-17-1 0-2-1-2-1-9-8-15-20-16-31-1-11 1-18 7-26 5-5 10-7 17-8 4 1 4 1 7 2 2 5 2 5 2 7 2 5 4 8 8 11 7 4 14 4 22 2 12-4 20-11 26-23 7-16 7-34 1-51-10-22-27-39-50-49-29-11-60-10-89 2-36 16-62 45-77 81-17 44-13 93 6 136 17 37 46 69 82 89 1 1 2 1 3 2 55 31 120 37 181 20 18-5 36-12 53-22 1 0 3-1 4-2 31-17 59-40 81-68 1-1 2-2 3-3 49-61 69-138 74-215 0-1 0-2 0-4 1-6 1-11 2-17 2-30 2-30 8-38 2-2 2-2 6-2 10 2 18 13 23 20 24 37 35 81 39 124 0 2 0 3 0 4 6 62-7 126-33 182-1 2-2 4-3 7-11 25-27 49-44 71 0 1-1 2-2 3-17 22-37 44-59 61 0 1 0 1-4 3-24 20-50 36-78 49-1 1-3 2-4 2-42 21-88 33-135 38 0 0 0 0-3 1-28 3-58 3-86-1-1 0-2 0-3 0-86-10-170-46-233-105-2-2-4-4-7-6-4-4-9-8-13-13 0 0 0 0-2-2-5-5-10-10-14-15-1-1-2-2-2-3-24-27-44-58-60-91-1-1-1-2-2-4-7-14-13-29-18-44 0-1-1-2-1-3-1-1-1-2-1-3-1-1-1-2-1-3-1-3-1-3 0-7 0 1 1 2 1 3 14 41 33 79 59 114 1 2 2 3 3 4 15 20 33 40 52 56 1 1 1 1 3 3 53 46 124 80 196 81 1 0 3 0 4 0 12 0 25-1 35-8 1 0 1 0 2 0 1-3 2-6 0-10-7-12-21-19-33-27-25-16-50-34-72-54-2-2-4-3-5-5-9-7-17-15-24-24-1-1-2-2-3-3-41-48-70-108-76-172 0-1 0-2 0-3-5-65 12-134 55-184 0-1 0-1 2-3 1 0 1-1 2-2 11-12 23-24 36-34 1 0 2-1 3-2 70-52 173-55 240 3Z" fill="#FEFE24" transform="translate(518.876953125,292.630859375)" />
<path data-fill-layer-id="vtracer-fill-3-24b6da" d="M0-1c0 0 0 1 0 1-8-1-16-2-24-3-98-17-202 4-283 61-22 16-44 34-61 56-1 1-2 3-3 4-13 16-31 40-29 62 1 3 1 3 3 5 16 5 38-11 52-18 87-43 183-65 278-34 34 12 66 29 93 53 1 1 1 1 2 2 13 11 24 22 34 36 0 1 0 1 3 3 35 47 52 107 44 165-7 52-32 101-75 132-35 26-78 39-122 32-27-4-52-15-72-34 0 0 0 0-3-3-21-19-34-47-34-76-1-24 7-47 24-64 13-13 28-19 46-18 11 0 20 4 28 11 5 6 8 12 8 20-1 5-3 10-7 14-4 1-6 1-10 0-5-1-9-1-14 2-7 6-10 12-11 21-1 14 3 25 11 35 13 14 30 20 47 21 29 1 52-10 73-29 22-23 32-55 31-86-1-36-14-69-38-95-1-1-1-2-2-3-10-11-22-20-35-28-1-1-2-1-3-2-42-25-95-30-142-18-37 10-70 28-97 55-1 1-2 2-3 3-46 45-69 110-70 174-1 77 31 151 84 207 2 3 4 5 6 7 5 7 11 12 18 18 1 2 3 3 5 5 19 17 41 32 62 46 36 23 36 23 40 33 0 4 0 5-2 8-18 13-49 10-70 7-5-1-10-2-15-3-1 0-2 0-3-1-72-16-141-58-189-115-1-1-2-2-2-3-38-43-65-95-81-150-1-5-1-5-2-7-17-43-15-100-10-145 0-1 0-2 0-3 10-86 47-170 105-233 2-2 4-5 6-7 4-4 9-9 13-13 1-1 1-2 2-2 5-5 10-10 15-14 1-1 2-2 3-3 27-23 58-43 91-59 1-1 3-1 4-2 42-21 89-33 135-38 1 0 2 0 3 0 48-5 96-1 143 10Z" fill="#24B6DA" transform="translate(542,33)" />
</g></svg>